<svg width="665" height="661" viewBox="0 0 665 661" fill="none" xmlns="http://www.w3.org/2000/svg">
<path d="M536 346.48C584.667 415.98 611.9 575.98 331.5 659.98C446 609.98 595 555.48 536 346.48Z" fill="#181616"/>
<path d="M126.964 346.98C78.2977 416.48 51.0644 576.48 331.464 660.48C216.964 610.48 67.9644 555.98 126.964 346.98Z" fill="#181616"/>
<path d="M341.5 574C280.001 639.5 191.5 575.48 227.001 544.48C227.001 566.48 279.001 623 341.5 574C385.5 612 442.3 534 443.5 499.5C474 539 385.5 624.5 341.5 574Z" fill="#181616"/>
<path d="M367.869 524.359C356.685 514.547 301.66 514.547 291.818 524.359C281.976 534.171 314.633 576.095 328.949 576.987C343.266 577.878 379.053 534.171 367.869 524.359Z" fill="#181616"/>
<path d="M386.5 420.98C400.1 366.18 458.833 380.147 486.5 393.98C433.7 399.18 389.833 480.48 374.5 520.48C372.833 510.147 372.9 475.78 386.5 420.98Z" fill="#181616"/>
<path d="M277 420.98C263.4 366.18 204.667 380.147 177 393.98C229.8 399.18 273.667 480.48 289 520.48C290.667 510.147 290.6 475.78 277 420.98Z" fill="#181616"/>
<circle cx="241.5" cy="416.48" r="34.5" fill="#181616"/>
<circle cx="422.5" cy="416.48" r="34.5" fill="#181616"/>
<path d="M407.784 268.304C406.197 271.691 404.709 274.95 403.328 278.056C404.667 274.815 406.158 271.561 407.784 268.304C436.956 206.034 499.499 100.646 549.212 110.84C557.827 121.507 575.483 217.704 535.591 349.313C535.591 349.313 564.062 177.3 542.923 158.544C527.206 136.944 440.349 203.081 407.784 268.304Z" fill="#181616"/>
<path d="M255.445 268.304C257.032 271.691 258.52 274.95 259.902 278.056C258.562 274.815 257.071 271.561 255.445 268.304C226.273 206.034 163.73 100.646 114.017 110.84C105.403 121.507 87.7463 217.704 127.638 349.313C127.638 349.313 99.1669 177.3 120.307 158.544C136.023 136.944 222.88 203.081 255.445 268.304Z" fill="#181616"/>
<path d="M619.5 2.00017C580.5 9.50017 539 46.4999 535.5 112H547C547 112 547.5 66.5001 622 48.4999C696.5 30.4998 658.5 -5.49983 619.5 2.00017Z" fill="#181616"/>
<path d="M45.0972 2.01335C84.0972 9.51335 125.597 46.5131 129.097 112.013H117.597C117.597 112.013 117.097 66.5133 42.5972 48.5131C-31.9028 30.5129 6.09717 -5.48665 45.0972 2.01335Z" fill="#181616"/>
<path d="M629.914 79.2437C599.625 72.3102 558.217 85.7406 535 131.603L543.232 135.234C543.232 135.234 557.978 102.765 617 113.376C676.022 123.987 660.204 86.1773 629.914 79.2437Z" fill="#181616"/>
<path d="M34.6827 79.2569C64.9721 72.3234 106.38 85.7538 129.597 131.616L121.365 135.247C121.365 135.247 106.619 102.778 47.5971 113.389C-11.425 124 4.39324 86.1905 34.6827 79.2569Z" fill="#181616"/>
<path d="M623.073 135.721C604.003 120.463 570.105 115.82 538 140.349L542.586 145.731C542.586 145.731 564.118 127.789 602.269 155.467C640.42 183.145 642.143 150.978 623.073 135.721Z" fill="#181616"/>
<path d="M41.5242 135.734C60.5942 120.476 94.492 115.833 126.597 140.362L122.011 145.745C122.011 145.745 100.479 127.802 62.3283 155.48C24.1776 183.159 22.4543 150.991 41.5242 135.734Z" fill="#181616"/>
<path d="M387.5 617.5C404.7 605.5 417 577.5 421 565L384 582L387.5 617.5Z" fill="#181616"/>
<path d="M456 314C415.204 289.852 309.29 256.045 212 314C306 283.192 411.5 299 456 314Z" fill="#181616"/>
</svg>
